<mxfile host="app.diagrams.net" modified="2023-05-09T23:43:19.433Z" agent="5.0 (Windows NT 10.0; Win64; x64) AppleWebKit/537.36 (KHTML, like Gecko) Chrome/112.0.0.0 Safari/537.36" etag="Lrcb_NpOk6dJ9mrnAmza" version="18.0.3" type="github">
  <diagram id="wc5u_3k6WploP4A_vuO7" name="Page-1">
    <mxGraphModel dx="2062" dy="1146" grid="1" gridSize="10" guides="1" tooltips="1" connect="1" arrows="1" fold="1" page="1" pageScale="1" pageWidth="850" pageHeight="1100" math="0" shadow="0">
      <root>
        <mxCell id="0" />
        <mxCell id="1" parent="0" />
        <mxCell id="hTojvkaq_PwxAIXKP4DE-3" value="" style="edgeStyle=orthogonalEdgeStyle;rounded=0;orthogonalLoop=1;jettySize=auto;html=1;" edge="1" parent="1" source="hTojvkaq_PwxAIXKP4DE-1" target="hTojvkaq_PwxAIXKP4DE-2">
          <mxGeometry relative="1" as="geometry" />
        </mxCell>
        <mxCell id="hTojvkaq_PwxAIXKP4DE-1" value="Input: Colored Images (RGB)" style="rounded=0;whiteSpace=wrap;html=1;" vertex="1" parent="1">
          <mxGeometry x="280" y="770" width="120" height="60" as="geometry" />
        </mxCell>
        <mxCell id="hTojvkaq_PwxAIXKP4DE-2" value="Input: Colored Images (RGB)" style="rounded=0;whiteSpace=wrap;html=1;" vertex="1" parent="1">
          <mxGeometry x="280" y="630" width="120" height="60" as="geometry" />
        </mxCell>
      </root>
    </mxGraphModel>
  </diagram>
</mxfile>
